# xmcd
#
# Track frame offsets: 
#        150
#        24417
#        37000
#        51047
#        78615
#        92517
#        110350
#        127190
#        140900
#        161255
#
# Disc length: 2408 seconds
#
# Revision: 28
# Processed by: cddbd v1.5.2PL0 Copyright (c) Steve Scherf et al.
# Submitted via: ExactAudioCopy v1.0b3
#
DISCID=8209660a,8409670a
DTITLE=Vaughan, Stevie Ray And Double Trouble - Soul To Soul
DYEAR=1985
DGENRE=Blues
TTITLE0=Say What!
TTITLE1=Lookin' Out The Window
TTITLE2=Look At Little Sister
TTITLE3=Ain't Gone 'n' Give Up On Love
TTITLE4=Gone Home
TTITLE5=Change It
TTITLE6=You'll Be Mine
TTITLE7=Empty Arms
TTITLE8=Come On (Part III)
TTITLE9=Life Without You
EXTD=YEAR: 1985
EXTT0=
EXTT1=
EXTT2=
EXTT3=
EXTT4=
EXTT5=
EXTT6=
EXTT7=
EXTT8=
EXTT9=
PLAYORDER=
